<svg width="34" height="34" viewBox="0 0 34 34" fill="none" xmlns="http://www.w3.org/2000/svg">
<g clip-path="url(#clip0_1057_10206)">
<path d="M31.5439 7.8623C26.4439 -0.000259908 16.0313 -2.33778 7.95623 2.54976C0.0936712 7.4373 -2.45635 18.0624 2.64369 25.9249L3.0687 26.5624L1.36868 32.9375L7.74373 31.2375L8.38124 31.6625C11.1438 33.15 14.1188 34 17.0938 34C20.2813 34 23.4689 33.15 26.2314 31.45C34.0939 26.3499 36.4315 15.9374 31.5439 7.8623ZM27.0814 24.2249C26.2314 25.4999 25.1689 26.3499 23.6814 26.5624C22.8314 26.5624 21.7688 26.9874 17.5188 25.2874C13.9063 23.5874 10.9313 20.8249 8.80624 17.6374C7.53123 16.1499 6.89372 14.2373 6.68122 12.3248C6.68122 10.6248 7.31873 9.13731 8.38124 8.0748C8.80624 7.6498 9.23124 7.4373 9.65625 7.4373H10.7188C11.1438 7.4373 11.5688 7.4373 11.7813 8.2873C12.2063 9.34981 13.2688 11.8998 13.2688 12.1123C13.4813 12.3248 13.4813 12.7498 13.2688 12.9623C13.4813 13.3873 13.2688 13.8123 13.0563 14.0248C12.8438 14.2374 12.6313 14.6624 12.4188 14.8749C11.9938 15.0874 11.7813 15.5124 11.9938 15.9374C12.8438 17.2124 13.9063 18.4874 14.9688 19.5499C16.2438 20.6124 17.5188 21.4624 19.0063 22.0999C19.4313 22.3124 19.8563 22.3124 20.0688 21.8874C20.2813 21.4624 21.3438 20.3999 21.7688 19.9749C22.1938 19.5499 22.4063 19.5499 22.8314 19.7624L26.2314 21.4624C26.6564 21.6749 27.0814 21.8874 27.2939 22.0999C27.5064 22.7374 27.5064 23.5874 27.0814 24.2249Z" fill="#00AE31"/>
</g>
<defs>
<clipPath id="clip0_1057_10206">
<rect width="34" height="34" fill="white"/>
</clipPath>
</defs>
</svg>
